<svg xmlns="http://www.w3.org/2000/svg" xmlns:xlink="http://www.w3.org/1999/xlink" width="480" viewBox="0 0 480 360" height="360" version="1.0"><defs><clipPath id="a"><path d="M 250 147 L 311 147 L 311 197 L 250 197 Z M 250 147"/></clipPath><clipPath id="b"><path d="M 250.917969 184.640625 C 250.941406 184.636719 276.902344 180.113281 301.117188 147.792969 C 301.746094 146.957031 308.800781 158.585938 309.027344 159.207031 C 312.347656 168.304688 309.800781 178.160156 302.980469 184.910156 C 292.789062 195 274.472656 200.269531 261.050781 193.570312 C 259.089844 192.589844 257.332031 191.273438 255.71875 189.792969 C 255.085938 189.214844 251.4375 184.550781 250.917969 184.640625 Z M 250.917969 184.640625"/></clipPath><clipPath id="d"><path d="M 168 147 L 228 147 L 228 197 L 168 197 Z M 168 147"/></clipPath><clipPath id="e"><path d="M 227.6875 184.640625 C 227.664062 184.636719 201.703125 180.113281 177.484375 147.792969 C 176.859375 146.957031 169.804688 158.585938 169.574219 159.207031 C 166.253906 168.304688 168.804688 178.160156 175.621094 184.910156 C 185.816406 195 204.132812 200.269531 217.550781 193.570312 C 219.515625 192.589844 221.269531 191.273438 222.886719 189.792969 C 223.519531 189.214844 227.164062 184.550781 227.6875 184.640625 Z M 227.6875 184.640625"/></clipPath><clipPath id="g"><path d="M 244 132 L 315.601562 132 L 315.601562 186 L 244 186 Z M 244 132"/></clipPath><clipPath id="h"><path d="M 164.101562 132 L 236 132 L 236 186 L 164.101562 186 Z M 164.101562 132"/></clipPath><clipPath id="i"><path d="M 180.171875 206.804688 L 300.171875 206.804688 L 300.171875 255 L 180.171875 255 Z M 180.171875 206.804688"/></clipPath><linearGradient x1="195.337" gradientTransform="matrix(.5488 0 0 .55078 164.804 132.937)" xmlns:xlink="http://www.w3.org/1999/xlink" y1="133.801" x2="231.453" gradientUnits="userSpaceOnUse" y2="14.164" xlink:type="simple" xlink:actuate="onLoad" id="c" xlink:show="other"><stop stop-color="#D41323" offset="0"/><stop stop-color="#D41323" offset=".063"/><stop stop-color="#D41323" offset=".094"/><stop stop-color="#D31323" offset=".109"/><stop stop-color="#D31323" offset=".125"/><stop stop-color="#D21323" offset=".141"/><stop stop-color="#D21323" offset=".156"/><stop stop-color="#D11323" offset=".172"/><stop stop-color="#D11423" offset=".188"/><stop stop-color="#D01423" offset=".203"/><stop stop-color="#CF1423" offset=".219"/><stop stop-color="#CF1423" offset=".234"/><stop stop-color="#CE1423" offset=".25"/><stop stop-color="#CE1423" offset=".258"/><stop stop-color="#CD1423" offset=".259"/><stop stop-color="#CD1423" offset=".266"/><stop stop-color="#CC1423" offset=".273"/><stop stop-color="#CC1423" offset=".281"/><stop stop-color="#CB1423" offset=".289"/><stop stop-color="#CB1523" offset=".297"/><stop stop-color="#CA1523" offset=".305"/><stop stop-color="#C91523" offset=".313"/><stop stop-color="#C91523" offset=".32"/><stop stop-color="#C81523" offset=".328"/><stop stop-color="#C71523" offset=".336"/><stop stop-color="#C71523" offset=".344"/><stop stop-color="#C61523" offset=".352"/><stop stop-color="#C61523" offset=".359"/><stop stop-color="#C51623" offset=".367"/><stop stop-color="#C41623" offset=".375"/><stop stop-color="#C41623" offset=".383"/><stop stop-color="#C31623" offset=".391"/><stop stop-color="#C21623" offset=".398"/><stop stop-color="#C21623" offset=".406"/><stop stop-color="#C11623" offset=".414"/><stop stop-color="#C11623" offset=".422"/><stop stop-color="#C01723" offset=".43"/><stop stop-color="#BF1723" offset=".438"/><stop stop-color="#BF1723" offset=".445"/><stop stop-color="#BE1723" offset=".453"/><stop stop-color="#BD1723" offset=".461"/><stop stop-color="#BC1723" offset=".469"/><stop stop-color="#BC1823" offset=".477"/><stop stop-color="#BB1823" offset=".484"/><stop stop-color="#BA1823" offset=".492"/><stop stop-color="#B91823" offset=".5"/><stop stop-color="#B81823" offset=".508"/><stop stop-color="#B71923" offset=".516"/><stop stop-color="#B61923" offset=".523"/><stop stop-color="#B51923" offset=".531"/><stop stop-color="#B41923" offset=".539"/><stop stop-color="#B41923" offset=".547"/><stop stop-color="#B31A23" offset=".555"/><stop stop-color="#B21A23" offset=".563"/><stop stop-color="#B11A23" offset=".57"/><stop stop-color="#B01A23" offset=".578"/><stop stop-color="#AF1A23" offset=".586"/><stop stop-color="#AE1B23" offset=".594"/><stop stop-color="#AD1B23" offset=".602"/><stop stop-color="#AC1B23" offset=".609"/><stop stop-color="#AB1B23" offset=".617"/><stop stop-color="#AB1C23" offset=".625"/><stop stop-color="#AA1C23" offset=".633"/><stop stop-color="#A91C23" offset=".641"/><stop stop-color="#A81C23" offset=".648"/><stop stop-color="#A71C23" offset=".656"/><stop stop-color="#A61D23" offset=".664"/><stop stop-color="#A51D23" offset=".672"/><stop stop-color="#A41D23" offset=".68"/><stop stop-color="#A31D23" offset=".684"/><stop stop-color="#A31D23" offset=".688"/><stop stop-color="#A21D23" offset=".691"/><stop stop-color="#A21E23" offset=".695"/><stop stop-color="#A11E23" offset=".699"/><stop stop-color="#A01E23" offset=".703"/><stop stop-color="#A01E23" offset=".707"/><stop stop-color="#9F1E23" offset=".711"/><stop stop-color="#9F1E23" offset=".715"/><stop stop-color="#9E1E23" offset=".719"/><stop stop-color="#9D1E23" offset=".723"/><stop stop-color="#9D1E23" offset=".727"/><stop stop-color="#9C1F23" offset=".73"/><stop stop-color="#9C1F23" offset=".734"/><stop stop-color="#9B1F23" offset=".738"/><stop stop-color="#9B1F23" offset=".742"/><stop stop-color="#9A1F23" offset=".746"/><stop stop-color="#991F23" offset=".75"/><stop stop-color="#991F23" offset=".754"/><stop stop-color="#981F23" offset=".758"/><stop stop-color="#981F23" offset=".762"/><stop stop-color="#972023" offset=".766"/><stop stop-color="#972023" offset=".77"/><stop stop-color="#962023" offset=".773"/><stop stop-color="#952023" offset=".777"/><stop stop-color="#952023" offset=".781"/><stop stop-color="#942023" offset=".785"/><stop stop-color="#942023" offset=".789"/><stop stop-color="#932023" offset=".793"/><stop stop-color="#922023" offset=".797"/><stop stop-color="#922123" offset=".801"/><stop stop-color="#912123" offset=".805"/><stop stop-color="#912123" offset=".809"/><stop stop-color="#902123" offset=".813"/><stop stop-color="#902124" offset=".816"/><stop stop-color="#8F2124" offset=".82"/><stop stop-color="#8E2124" offset=".824"/><stop stop-color="#8E2124" offset=".828"/><stop stop-color="#8D2124" offset=".832"/><stop stop-color="#8D2224" offset=".836"/><stop stop-color="#8C2224" offset=".84"/><stop stop-color="#8C2224" offset=".844"/><stop stop-color="#8B2224" offset=".848"/><stop stop-color="#8A2224" offset=".852"/><stop stop-color="#8A2224" offset=".855"/><stop stop-color="#892224" offset=".859"/><stop stop-color="#892224" offset=".863"/><stop stop-color="#882224" offset=".867"/><stop stop-color="#872324" offset=".871"/><stop stop-color="#872324" offset=".875"/><stop stop-color="#862324" offset=".879"/><stop stop-color="#862324" offset=".883"/><stop stop-color="#852324" offset=".887"/><stop stop-color="#852324" offset=".891"/><stop stop-color="#842324" offset=".895"/><stop stop-color="#832324" offset=".898"/><stop stop-color="#832324" offset=".902"/><stop stop-color="#822424" offset=".906"/><stop stop-color="#822424" offset=".91"/><stop stop-color="#812424" offset=".914"/><stop stop-color="#812424" offset=".918"/><stop stop-color="#802424" offset=".922"/><stop stop-color="#7F2424" offset=".926"/><stop stop-color="#7F2424" offset=".93"/><stop stop-color="#7E2424" offset=".934"/><stop stop-color="#7D2524" offset=".938"/><stop stop-color="#7D2524" offset=".941"/><stop stop-color="#7C2524" offset=".945"/><stop stop-color="#7B2524" offset=".949"/><stop stop-color="#7B2524" offset=".953"/><stop stop-color="#7A2524" offset=".957"/><stop stop-color="#792624" offset=".961"/><stop stop-color="#782624" offset=".965"/><stop stop-color="#782624" offset=".969"/><stop stop-color="#772624" offset=".973"/><stop stop-color="#762624" offset=".977"/><stop stop-color="#762624" offset=".98"/><stop stop-color="#752724" offset=".984"/><stop stop-color="#742724" offset=".988"/><stop stop-color="#742724" offset=".992"/><stop stop-color="#732724" offset=".996"/><stop stop-color="#722724" offset="1"/></linearGradient><linearGradient x1="91.027" gradientTransform="matrix(.5488 0 0 .55078 164.804 132.937)" xmlns:xlink="http://www.w3.org/1999/xlink" y1="136.11" x2="19.729" gradientUnits="userSpaceOnUse" y2="15.364" xlink:type="simple" xlink:actuate="onLoad" id="f" xlink:show="other"><stop stop-color="#D41323" offset="0"/><stop stop-color="#D41323" offset=".25"/><stop stop-color="#D41323" offset=".313"/><stop stop-color="#D31323" offset=".316"/><stop stop-color="#D31323" offset=".32"/><stop stop-color="#D21323" offset=".324"/><stop stop-color="#D21423" offset=".328"/><stop stop-color="#D11423" offset=".332"/><stop stop-color="#D11423" offset=".336"/><stop stop-color="#D01423" offset=".34"/><stop stop-color="#CF1423" offset=".344"/><stop stop-color="#CF1423" offset=".348"/><stop stop-color="#CE1423" offset=".352"/><stop stop-color="#CE1423" offset=".355"/><stop stop-color="#CD1523" offset=".359"/><stop stop-color="#CD1523" offset=".363"/><stop stop-color="#CC1523" offset=".367"/><stop stop-color="#CB1523" offset=".371"/><stop stop-color="#CB1523" offset=".375"/><stop stop-color="#CA1523" offset=".379"/><stop stop-color="#CA1523" offset=".383"/><stop stop-color="#C91523" offset=".387"/><stop stop-color="#C91523" offset=".391"/><stop stop-color="#C81623" offset=".395"/><stop stop-color="#C71623" offset=".398"/><stop stop-color="#C71623" offset=".402"/><stop stop-color="#C61623" offset=".406"/><stop stop-color="#C61623" offset=".41"/><stop stop-color="#C51623" offset=".414"/><stop stop-color="#C51623" offset=".418"/><stop stop-color="#C41623" offset=".422"/><stop stop-color="#C31723" offset=".426"/><stop stop-color="#C31723" offset=".43"/><stop stop-color="#C21723" offset=".434"/><stop stop-color="#C21723" offset=".438"/><stop stop-color="#C11723" offset=".441"/><stop stop-color="#C11723" offset=".445"/><stop stop-color="#C01723" offset=".449"/><stop stop-color="#C01723" offset=".453"/><stop stop-color="#BF1723" offset=".457"/><stop stop-color="#BE1823" offset=".461"/><stop stop-color="#BE1823" offset=".465"/><stop stop-color="#BD1823" offset=".469"/><stop stop-color="#BD1823" offset=".473"/><stop stop-color="#BC1823" offset=".477"/><stop stop-color="#BC1823" offset=".48"/><stop stop-color="#BB1823" offset=".484"/><stop stop-color="#BA1823" offset=".488"/><stop stop-color="#BA1923" offset=".492"/><stop stop-color="#B91923" offset=".496"/><stop stop-color="#B91923" offset=".5"/><stop stop-color="#B81923" offset=".504"/><stop stop-color="#B81923" offset=".508"/><stop stop-color="#B71923" offset=".512"/><stop stop-color="#B61923" offset=".516"/><stop stop-color="#B61923" offset=".52"/><stop stop-color="#B51923" offset=".523"/><stop stop-color="#B51A23" offset=".527"/><stop stop-color="#B41A23" offset=".531"/><stop stop-color="#B41A23" offset=".535"/><stop stop-color="#B31A23" offset=".539"/><stop stop-color="#B21A23" offset=".543"/><stop stop-color="#B21A23" offset=".547"/><stop stop-color="#B11A23" offset=".551"/><stop stop-color="#B11A23" offset=".555"/><stop stop-color="#B01B23" offset=".559"/><stop stop-color="#B01B23" offset=".563"/><stop stop-color="#AF1B23" offset=".566"/><stop stop-color="#AE1B23" offset=".57"/><stop stop-color="#AE1B23" offset=".574"/><stop stop-color="#AD1B23" offset=".578"/><stop stop-color="#AD1B23" offset=".582"/><stop stop-color="#AC1B23" offset=".586"/><stop stop-color="#AC1B23" offset=".59"/><stop stop-color="#AB1C23" offset=".594"/><stop stop-color="#AB1C23" offset=".598"/><stop stop-color="#AA1C23" offset=".602"/><stop stop-color="#A91C23" offset=".605"/><stop stop-color="#A91C23" offset=".609"/><stop stop-color="#A81C23" offset=".613"/><stop stop-color="#A81C23" offset=".617"/><stop stop-color="#A71C23" offset=".621"/><stop stop-color="#A71D23" offset=".625"/><stop stop-color="#A61D23" offset=".629"/><stop stop-color="#A51D23" offset=".633"/><stop stop-color="#A51D23" offset=".637"/><stop stop-color="#A41D23" offset=".641"/><stop stop-color="#A41D23" offset=".645"/><stop stop-color="#A31D23" offset=".648"/><stop stop-color="#A31D23" offset=".652"/><stop stop-color="#A21D23" offset=".656"/><stop stop-color="#A11E23" offset=".66"/><stop stop-color="#A11E23" offset=".664"/><stop stop-color="#A01E23" offset=".668"/><stop stop-color="#A01E23" offset=".672"/><stop stop-color="#9F1E23" offset=".676"/><stop stop-color="#9F1E23" offset=".68"/><stop stop-color="#9E1E23" offset=".684"/><stop stop-color="#9D1E23" offset=".688"/><stop stop-color="#9D1F23" offset=".691"/><stop stop-color="#9C1F23" offset=".695"/><stop stop-color="#9C1F23" offset=".699"/><stop stop-color="#9B1F24" offset=".703"/><stop stop-color="#9B1F24" offset=".707"/><stop stop-color="#9A1F24" offset=".711"/><stop stop-color="#991F24" offset=".715"/><stop stop-color="#991F24" offset=".719"/><stop stop-color="#981F24" offset=".723"/><stop stop-color="#982024" offset=".727"/><stop stop-color="#972024" offset=".73"/><stop stop-color="#972024" offset=".734"/><stop stop-color="#962024" offset=".738"/><stop stop-color="#962024" offset=".742"/><stop stop-color="#952024" offset=".746"/><stop stop-color="#942024" offset=".75"/><stop stop-color="#942024" offset=".754"/><stop stop-color="#932124" offset=".758"/><stop stop-color="#932124" offset=".762"/><stop stop-color="#922124" offset=".766"/><stop stop-color="#922124" offset=".77"/><stop stop-color="#912124" offset=".773"/><stop stop-color="#902124" offset=".777"/><stop stop-color="#902124" offset=".781"/><stop stop-color="#8F2124" offset=".785"/><stop stop-color="#8F2124" offset=".789"/><stop stop-color="#8E2224" offset=".793"/><stop stop-color="#8E2224" offset=".797"/><stop stop-color="#8D2224" offset=".801"/><stop stop-color="#8C2224" offset=".805"/><stop stop-color="#8C2224" offset=".809"/><stop stop-color="#8B2224" offset=".813"/><stop stop-color="#8B2224" offset=".816"/><stop stop-color="#8A2224" offset=".82"/><stop stop-color="#8A2324" offset=".824"/><stop stop-color="#892324" offset=".828"/><stop stop-color="#882324" offset=".832"/><stop stop-color="#882324" offset=".836"/><stop stop-color="#872324" offset=".84"/><stop stop-color="#872324" offset=".844"/><stop stop-color="#862324" offset=".848"/><stop stop-color="#862324" offset=".852"/><stop stop-color="#852324" offset=".855"/><stop stop-color="#852424" offset=".859"/><stop stop-color="#842424" offset=".863"/><stop stop-color="#832424" offset=".867"/><stop stop-color="#832424" offset=".871"/><stop stop-color="#822424" offset=".875"/><stop stop-color="#822424" offset=".879"/><stop stop-color="#812424" offset=".883"/><stop stop-color="#812424" offset=".887"/><stop stop-color="#802524" offset=".891"/><stop stop-color="#7F2524" offset=".895"/><stop stop-color="#7F2524" offset=".898"/><stop stop-color="#7E2524" offset=".902"/><stop stop-color="#7E2524" offset=".906"/><stop stop-color="#7D2524" offset=".91"/><stop stop-color="#7D2524" offset=".914"/><stop stop-color="#7C2524" offset=".918"/><stop stop-color="#7B2524" offset=".922"/><stop stop-color="#7B2624" offset=".926"/><stop stop-color="#7A2624" offset=".93"/><stop stop-color="#7A2624" offset=".934"/><stop stop-color="#792624" offset=".938"/><stop stop-color="#792624" offset=".941"/><stop stop-color="#782624" offset=".945"/><stop stop-color="#772624" offset=".949"/><stop stop-color="#772624" offset=".953"/><stop stop-color="#762724" offset=".957"/><stop stop-color="#762724" offset=".961"/><stop stop-color="#752724" offset=".965"/><stop stop-color="#752724" offset=".969"/><stop stop-color="#742724" offset=".973"/><stop stop-color="#732724" offset=".977"/><stop stop-color="#732724" offset=".98"/><stop stop-color="#722724" offset=".984"/><stop stop-color="#722724" offset=".988"/><stop stop-color="#712824" offset=".992"/><stop stop-color="#712824" offset=".996"/><stop stop-color="#702824" offset="1"/></linearGradient></defs><path fill="#FFF" d="M-48 -36H528V396H-48z"/><path fill="#FFF" d="M-48 -36H528V396H-48z"/><path fill="#FFF" d="M-48 -36H528V396H-48z"/><path fill="#00C2CB" d="M 240 91.8125 C 185.324219 91.8125 141 136.136719 141 190.8125 C 141 245.488281 185.324219 289.8125 240 289.8125 C 294.675781 289.8125 339 245.488281 339 190.8125 C 339 136.136719 294.675781 91.8125 240 91.8125"/><g clip-path="url(#a)"><g clip-path="url(#b)"><path fill="url(#c)" d="M 250.917969 146.957031 L 250.917969 200.242188 L 312.347656 200.242188 L 312.347656 146.957031 Z M 250.917969 146.957031"/></g></g><g clip-path="url(#d)"><g clip-path="url(#e)"><path fill="url(#f)" d="M 166.253906 146.957031 L 166.253906 200.242188 L 227.6875 200.242188 L 227.6875 146.957031 Z M 166.253906 146.957031"/></g></g><path d="M 217.152344 181.269531 C 217.136719 181.265625 198.945312 178.097656 181.976562 155.449219 C 181.539062 154.863281 176.59375 163.011719 176.4375 163.449219 C 174.109375 169.820312 175.894531 176.726562 180.671875 181.457031 C 187.8125 188.527344 200.648438 192.21875 210.050781 187.527344 C 211.425781 186.835938 212.65625 185.917969 213.789062 184.878906 C 214.230469 184.472656 216.789062 181.203125 217.152344 181.269531 Z M 217.152344 181.269531"/><path fill="#FFF" d="M 205.703125 183.582031 C 205.703125 185.566406 204.097656 187.175781 202.121094 187.175781 C 200.140625 187.175781 198.535156 185.566406 198.535156 183.582031 C 198.535156 181.59375 200.140625 179.984375 202.121094 179.984375 C 204.097656 179.984375 205.703125 181.59375 205.703125 183.582031 Z M 205.703125 183.582031"/><path d="M 259.832031 181.269531 C 259.847656 181.265625 278.039062 178.097656 295.003906 155.449219 C 295.445312 154.863281 300.386719 163.011719 300.546875 163.449219 C 302.875 169.820312 301.085938 176.726562 296.308594 181.457031 C 289.167969 188.527344 276.335938 192.21875 266.933594 187.527344 C 265.554688 186.835938 264.328125 185.917969 263.195312 184.878906 C 262.75 184.472656 260.195312 181.203125 259.832031 181.269531 Z M 259.832031 181.269531"/><path fill="#FFF" d="M 276.644531 181.15625 C 276.644531 183.144531 275.039062 184.753906 273.0625 184.753906 C 271.082031 184.753906 269.476562 183.144531 269.476562 181.15625 C 269.476562 179.171875 271.082031 177.5625 273.0625 177.5625 C 275.039062 177.5625 276.644531 179.171875 276.644531 181.15625 Z M 276.644531 181.15625"/><path fill="#1A171B" d="M 228.03125 182.664062 C 227.78125 182.621094 202.484375 177.820312 179.082031 146.585938 C 178.679688 146.050781 178.066406 145.746094 177.398438 145.746094 C 176.25 145.746094 175.46875 146.03125 171.507812 152.164062 C 170.5 153.726562 167.96875 157.773438 167.699219 158.515625 C 164.164062 168.199219 166.664062 178.859375 174.21875 186.335938 C 181.839844 193.882812 193.300781 198.566406 204.128906 198.566406 C 209.371094 198.566406 214.1875 197.492188 218.441406 195.367188 C 220.40625 194.382812 222.300781 193.046875 224.234375 191.273438 C 224.523438 191.007812 224.941406 190.515625 225.785156 189.515625 C 226.550781 188.609375 228.140625 186.726562 228.601562 186.378906 C 228.597656 186.382812 228.03125 182.664062 228.03125 182.664062 Z M 222.738281 186.921875 C 222.269531 187.480469 221.6875 188.167969 221.539062 188.3125 C 219.882812 189.828125 218.289062 190.960938 216.664062 191.773438 C 212.964844 193.621094 208.746094 194.558594 204.128906 194.558594 C 194.3125 194.558594 183.925781 190.3125 177.023438 183.480469 C 170.617188 177.140625 168.476562 168.136719 171.425781 159.972656 C 171.957031 158.921875 175.328125 153.445312 177.261719 150.796875 C 196.230469 175.265625 215.867188 183.320312 223.769531 185.710938 C 223.457031 186.074219 223.117188 186.476562 222.738281 186.921875 Z M 222.738281 186.921875"/><path fill="#1A171B" d="M 310.902344 158.515625 C 310.632812 157.773438 308.105469 153.726562 307.09375 152.164062 C 303.136719 146.03125 302.351562 145.746094 301.207031 145.746094 C 300.535156 145.746094 299.921875 146.050781 299.519531 146.585938 C 276.117188 177.820312 250.824219 182.621094 250.570312 182.664062 C 250.570312 182.664062 250.003906 186.382812 250 186.378906 C 250.464844 186.726562 252.054688 188.609375 252.820312 189.515625 C 253.664062 190.515625 254.082031 191.007812 254.371094 191.273438 C 256.304688 193.046875 258.199219 194.382812 260.164062 195.367188 C 264.417969 197.492188 269.234375 198.566406 274.476562 198.566406 C 285.300781 198.566406 296.761719 193.882812 304.386719 186.335938 C 311.941406 178.859375 314.4375 168.199219 310.902344 158.515625 Z M 301.578125 183.480469 C 294.675781 190.3125 284.289062 194.558594 274.476562 194.558594 C 269.859375 194.558594 265.640625 193.621094 261.941406 191.773438 C 260.316406 190.960938 258.722656 189.828125 257.078125 188.324219 C 256.917969 188.167969 256.335938 187.480469 255.867188 186.921875 C 255.488281 186.476562 255.144531 186.074219 254.835938 185.710938 C 262.734375 183.320312 282.375 175.265625 301.34375 150.796875 C 303.277344 153.445312 306.648438 158.921875 307.179688 159.972656 C 310.128906 168.136719 307.984375 177.140625 301.578125 183.480469 Z M 301.578125 183.480469"/><g clip-path="url(#g)"><path fill="#1A171B" d="M 305.113281 133.003906 C 298.367188 132.273438 292.253906 137.699219 288.0625 142.367188 C 282.277344 148.816406 276.320312 154.703125 269.355469 159.894531 C 265.675781 162.636719 261.183594 166.144531 256.660156 167.34375 C 238.675781 172.105469 245.921875 185.140625 245.921875 185.140625 C 244.742188 181.929688 245.757812 179.105469 248.003906 176.738281 C 251.351562 173.203125 255.800781 171.996094 260.1875 170.375 C 275.519531 164.710938 285.203125 148.761719 297.371094 138.769531 C 308.363281 129.746094 315.605469 147.75 315.605469 147.75 C 315.605469 135.675781 305.113281 133.003906 305.113281 133.003906 Z M 305.113281 133.003906"/></g><g clip-path="url(#h)"><path fill="#1A171B" d="M 223.75 167.34375 C 219.226562 166.144531 214.734375 162.636719 211.050781 159.894531 C 204.089844 154.703125 198.132812 148.816406 192.347656 142.367188 C 188.15625 137.699219 182.042969 132.273438 175.292969 133.003906 C 175.292969 133.003906 164.804688 135.675781 164.804688 147.75 C 164.804688 147.75 172.046875 129.746094 183.035156 138.769531 C 195.207031 148.761719 204.890625 164.710938 220.222656 170.375 C 224.605469 171.996094 229.058594 173.203125 232.40625 176.738281 C 234.648438 179.105469 235.667969 181.929688 234.488281 185.140625 C 234.488281 185.140625 241.730469 172.105469 223.75 167.34375 Z M 223.75 167.34375"/></g><path fill="#1A171B" d="M 253.164062 160.074219 C 251.324219 162.371094 244.523438 164.507812 241.667969 164.679688 C 237.921875 164.910156 232.589844 162.738281 229.9375 160.074219 C 229.9375 160.074219 236.429688 168.597656 241.175781 168.847656 C 241.175781 168.847656 244.921875 170.351562 253.164062 160.074219 Z M 253.164062 160.074219"/><path fill="#FFF" d="M 247.753906 223.007812 C 226.808594 225.304688 206.3125 228.199219 185.480469 229.070312 C 191.113281 234.457031 193.230469 236.65625 198.867188 239.773438 C 216.296875 249.40625 239.460938 256.886719 259.324219 250.105469 C 271.347656 246.003906 291.578125 223.636719 297.109375 209.121094 C 296.46875 208.996094 258.25 221.859375 247.753906 223.007812 Z M 247.753906 223.007812"/><g clip-path="url(#i)"><path fill="#231F20" d="M 242.800781 254.941406 C 242.800781 254.941406 242.800781 254.941406 242.796875 254.941406 C 225.375 254.941406 208.707031 247.753906 197.792969 241.722656 C 192.304688 238.6875 189.898438 236.382812 185.101562 231.785156 L 180.164062 227.0625 L 185.386719 226.84375 C 201.15625 226.1875 217.109375 224.320312 232.539062 222.511719 C 237.511719 221.929688 242.5 221.347656 247.511719 220.796875 C 254.859375 219.992188 276.757812 213.097656 288.523438 209.398438 C 296.484375 206.894531 296.554688 206.894531 297.097656 206.894531 L 297.535156 206.933594 L 300.128906 207.441406 L 299.1875 209.914062 C 293.265625 225.457031 272.410156 247.992188 260.042969 252.214844 C 254.730469 254.023438 248.933594 254.941406 242.800781 254.941406 Z M 190.765625 231.035156 C 193.886719 233.964844 195.957031 235.621094 199.941406 237.824219 C 210.398438 243.601562 226.320312 250.488281 242.800781 250.488281 C 248.445312 250.488281 253.761719 249.652344 258.605469 248 C 268.75 244.535156 285.859375 226.628906 293.085938 212.628906 C 292.082031 212.945312 290.976562 213.292969 289.855469 213.644531 C 277.945312 217.394531 255.773438 224.371094 247.996094 225.222656 C 242.992188 225.769531 238.015625 226.351562 233.054688 226.933594 C 219.230469 228.550781 204.980469 230.21875 190.765625 231.035156 Z M 190.765625 231.035156"/></g><path fill="#231F20" d="M 244.703125 252.125 L 227.136719 234.351562 L 218.351562 244.144531 L 201.410156 235.753906 L 195.921875 239.265625 L 193.527344 235.515625 L 201.132812 230.648438 L 217.300781 238.660156 L 226.980469 227.863281 L 243.222656 244.296875 L 252.601562 222.433594 L 269.675781 234.867188 L 276.269531 215.703125 L 291.925781 218.171875 L 291.234375 222.570312 L 279.261719 220.679688 L 271.917969 242.007812 L 254.488281 229.3125 Z M 244.703125 252.125"/></svg>