<svg xmlns="http://www.w3.org/2000/svg" width="480" viewBox="0 0 480 360" height="360" version="1.0"><defs><clipPath id="a"><path d="M 151 57.832031 L 329 57.832031 L 329 295 L 151 295 Z M 151 57.832031"/></clipPath><clipPath id="b"><path d="M 191 168.867188 L 289 168.867188 L 289 207.867188 L 191 207.867188 Z M 191 168.867188"/></clipPath><clipPath id="c"><path d="M 243 102.105469 L 295.65625 102.105469 L 295.65625 121 L 243 121 Z M 243 102.105469"/></clipPath><clipPath id="d"><path d="M 247 151 L 283 151 L 283 153.105469 L 247 153.105469 Z M 247 151"/></clipPath><clipPath id="e"><path d="M 184.65625 102.105469 L 238 102.105469 L 238 121 L 184.65625 121 Z M 184.65625 102.105469"/></clipPath></defs><path fill="#FFF" d="M-48 -36H528V396H-48z"/><path fill="#231F20" d="M-48 -36H528V396H-48z"/><g clip-path="url(#a)"><path fill="#F3F6FF" d="M 240.042969 57.914062 C 150.261719 57.914062 151.195312 206.070312 151.816406 267.699219 C 152.125 294.777344 175.113281 302.25 184.746094 285.753906 C 202.140625 256.183594 218.296875 276.726562 224.199219 283.574219 C 227.304688 286.996094 231.03125 294.15625 239.730469 294.15625 C 248.429688 294.15625 252.46875 286.996094 255.574219 283.574219 C 261.476562 276.726562 277.632812 256.496094 295.027344 285.753906 C 304.660156 302.25 327.648438 294.777344 327.957031 267.699219 C 328.890625 206.070312 329.511719 57.914062 240.042969 57.914062 Z M 240.042969 57.914062"/></g><path fill="#404040" d="M 225.441406 136.351562 C 225.441406 137.085938 225.40625 137.816406 225.332031 138.535156 C 225.261719 139.257812 225.15625 139.957031 225.015625 140.636719 C 224.875 141.316406 224.703125 141.964844 224.5 142.574219 C 224.292969 143.1875 224.0625 143.753906 223.804688 144.273438 C 223.542969 144.792969 223.261719 145.257812 222.957031 145.667969 C 222.652344 146.074219 222.328125 146.421875 221.988281 146.703125 C 221.648438 146.984375 221.300781 147.195312 220.941406 147.339844 C 220.582031 147.484375 220.214844 147.554688 219.847656 147.554688 C 219.480469 147.554688 219.117188 147.484375 218.757812 147.339844 C 218.398438 147.195312 218.046875 146.984375 217.710938 146.703125 C 217.371094 146.421875 217.046875 146.074219 216.742188 145.667969 C 216.4375 145.257812 216.15625 144.792969 215.894531 144.273438 C 215.636719 143.753906 215.402344 143.1875 215.199219 142.574219 C 214.996094 141.964844 214.824219 141.316406 214.683594 140.636719 C 214.542969 139.957031 214.4375 139.257812 214.363281 138.535156 C 214.292969 137.816406 214.257812 137.085938 214.257812 136.351562 C 214.257812 135.613281 214.292969 134.886719 214.363281 134.164062 C 214.4375 133.441406 214.542969 132.742188 214.683594 132.0625 C 214.824219 131.382812 214.996094 130.738281 215.199219 130.125 C 215.402344 129.511719 215.636719 128.949219 215.894531 128.425781 C 216.15625 127.90625 216.4375 127.441406 216.742188 127.035156 C 217.046875 126.625 217.371094 126.28125 217.710938 126 C 218.046875 125.71875 218.398438 125.503906 218.757812 125.359375 C 219.117188 125.21875 219.480469 125.144531 219.847656 125.144531 C 220.214844 125.144531 220.582031 125.21875 220.941406 125.359375 C 221.300781 125.503906 221.648438 125.71875 221.988281 126 C 222.328125 126.28125 222.652344 126.625 222.957031 127.035156 C 223.261719 127.441406 223.542969 127.90625 223.804688 128.425781 C 224.0625 128.949219 224.292969 129.511719 224.5 130.125 C 224.703125 130.738281 224.875 131.382812 225.015625 132.0625 C 225.15625 132.742188 225.261719 133.441406 225.332031 134.164062 C 225.40625 134.886719 225.441406 135.613281 225.441406 136.351562 Z M 225.441406 136.351562"/><path fill="#404040" d="M 259.613281 136.351562 C 259.613281 137.085938 259.578125 137.816406 259.507812 138.535156 C 259.433594 139.257812 259.328125 139.957031 259.1875 140.636719 C 259.046875 141.316406 258.875 141.964844 258.671875 142.574219 C 258.46875 143.1875 258.234375 143.753906 257.976562 144.273438 C 257.714844 144.792969 257.433594 145.257812 257.128906 145.667969 C 256.824219 146.074219 256.5 146.421875 256.160156 146.703125 C 255.824219 146.984375 255.472656 147.195312 255.113281 147.339844 C 254.753906 147.484375 254.390625 147.554688 254.023438 147.554688 C 253.65625 147.554688 253.289062 147.484375 252.929688 147.339844 C 252.570312 147.195312 252.222656 146.984375 251.882812 146.703125 C 251.542969 146.421875 251.21875 146.074219 250.914062 145.667969 C 250.609375 145.257812 250.328125 144.792969 250.066406 144.273438 C 249.808594 143.753906 249.578125 143.1875 249.371094 142.574219 C 249.167969 141.964844 248.996094 141.316406 248.855469 140.636719 C 248.714844 139.957031 248.609375 139.257812 248.539062 138.535156 C 248.464844 137.816406 248.429688 137.085938 248.429688 136.351562 C 248.429688 135.613281 248.464844 134.886719 248.539062 134.164062 C 248.609375 133.441406 248.714844 132.742188 248.855469 132.0625 C 248.996094 131.382812 249.167969 130.738281 249.371094 130.125 C 249.578125 129.511719 249.808594 128.949219 250.066406 128.425781 C 250.328125 127.90625 250.609375 127.441406 250.914062 127.035156 C 251.21875 126.625 251.542969 126.28125 251.882812 126 C 252.222656 125.71875 252.570312 125.503906 252.929688 125.359375 C 253.289062 125.21875 253.65625 125.144531 254.023438 125.144531 C 254.390625 125.144531 254.753906 125.21875 255.113281 125.359375 C 255.472656 125.503906 255.824219 125.71875 256.160156 126 C 256.5 126.28125 256.824219 126.625 257.128906 127.035156 C 257.433594 127.441406 257.714844 127.90625 257.976562 128.425781 C 258.234375 128.949219 258.46875 129.511719 258.671875 130.125 C 258.875 130.738281 259.046875 131.382812 259.1875 132.0625 C 259.328125 132.742188 259.433594 133.441406 259.507812 134.164062 C 259.578125 134.886719 259.613281 135.613281 259.613281 136.351562 Z M 259.613281 136.351562"/><path fill="#FFF" d="M 192.234375 172.714844 C 192.234375 172.714844 215.207031 178.011719 219.386719 178.703125 C 223.5625 179.394531 285.054688 172.945312 286.679688 171.792969 C 288.304688 170.640625 283.894531 187.222656 282.269531 190.214844 C 278.328125 197.355469 263.707031 204.03125 251.175781 205.644531 C 240.503906 205.875 212.195312 203.34375 205.234375 199.195312 C 199.664062 193.210938 191.542969 175.25 192.238281 172.714844 Z M 192.234375 172.714844" fill-rule="evenodd"/><g clip-path="url(#b)"><path d="M 288.277344 168.96875 C 260.851562 177.289062 233.917969 179.613281 205.953125 174.609375 C 201.398438 173.515625 195.667969 171.964844 191.230469 170.472656 C 190.863281 176.589844 192.667969 184.6875 195.882812 189.863281 C 197.878906 193.820312 201.121094 198.21875 205.085938 200.445312 C 215.175781 206.316406 228.320312 207.777344 239.78125 207.585938 C 251.703125 207.109375 264.5625 205.957031 275.289062 200.496094 C 278.742188 198.789062 281.359375 195.207031 282.757812 191.632812 C 286.054688 185.636719 289.132812 178.457031 288.984375 171.4375 Z M 286.222656 173.105469 C 286.113281 175.230469 284.921875 180.171875 284.21875 180.246094 C 284.648438 177.476562 282.164062 173.097656 286.222656 173.105469 Z M 281.605469 174.921875 C 281.339844 177.835938 282.214844 180.421875 281.390625 183.203125 C 279.566406 185.582031 274.089844 188.605469 275.007812 183.390625 C 275.472656 180.296875 271.820312 176.179688 276.371094 176.328125 C 278.351562 175.730469 279.648438 175.585938 281.605469 174.921875 Z M 194.207031 174.660156 C 196.761719 173.667969 194.851562 180.699219 195.019531 179.601562 C 194.070312 178.519531 194.253906 176.332031 194.207031 174.660156 Z M 196.914062 175.414062 C 198.730469 176.507812 203.75 176.339844 203.40625 178.097656 C 202.539062 180.632812 203.914062 184.445312 202.488281 186.101562 C 198.09375 186.851562 195.921875 182.261719 196.914062 178.582031 Z M 271.585938 178.039062 C 272.050781 182.351562 272.910156 185.5625 272.402344 189.898438 C 270.828125 192.523438 268.726562 194.554688 267.054688 191.15625 C 264.667969 187.996094 265.335938 183.863281 264.289062 180.109375 C 265.847656 178.5625 269.027344 179.078125 271.585938 178.039062 Z M 205.410156 177.777344 C 207.675781 179.101562 213.082031 177.769531 213.3125 180.570312 C 212.679688 184.214844 214.523438 189.152344 210.066406 190.777344 C 206.257812 193.679688 205.394531 187.636719 205.085938 185.027344 C 204.839844 182.628906 205.003906 180.144531 205.410156 177.777344 Z M 215.097656 179.710938 C 218.074219 180.652344 223.355469 180.070312 224.949219 181.589844 C 225.109375 185.035156 225.785156 188.769531 224.734375 192.066406 C 221.457031 193.660156 213.902344 194.601562 214.882812 188.894531 C 214.449219 185.941406 215.777344 182.144531 215.097656 179.710938 Z M 261.167969 179.976562 C 262.089844 184.304688 263.09375 188.269531 262.496094 192.714844 C 260.960938 194.855469 255.195312 195.34375 254.828125 192.496094 C 255.03125 188.589844 254.292969 184.730469 254.285156 180.839844 C 256.769531 180.542969 258.707031 180.40625 261.167969 179.976562 Z M 251.429688 181.1875 C 252.226562 185.484375 251.671875 189.558594 252.351562 193.839844 C 252.304688 197.59375 249.011719 196.359375 246.507812 195.914062 C 243.339844 195.773438 240.148438 194.398438 241.351562 190.992188 C 241.835938 188.109375 239.898438 183.441406 241.402344 181.75 C 245.011719 181.671875 247.839844 181.554688 251.429688 181.1875 Z M 227.539062 181.214844 C 231.261719 182.023438 235.558594 180.820312 238.113281 182.394531 C 237.941406 186.605469 238.34375 190.15625 238.976562 194.304688 C 237.328125 196.546875 233.859375 195.824219 231.3125 195.804688 C 226.238281 196.199219 226.859375 191.5625 227.539062 187.953125 C 227.582031 185.753906 227.230469 183.414062 227.539062 181.214844 Z M 197.398438 186.15625 C 198.972656 188.472656 202.253906 186.992188 201.277344 190.242188 C 201.269531 192.378906 201.761719 194.628906 200.375 191.851562 C 199.261719 190.015625 198.292969 188.109375 197.398438 186.15625 Z M 280.429688 186.476562 C 281.253906 189.550781 279.539062 192.203125 277.253906 194.167969 C 275.859375 194.050781 276.585938 190.160156 275.441406 189.160156 C 275.640625 187.808594 279.164062 187.796875 280.429688 186.480469 Z M 204.160156 188.429688 C 203.980469 191.421875 205.867188 193.390625 207.746094 193.890625 C 207.375 195.824219 208.742188 200.097656 205.765625 197.304688 C 200.957031 195.871094 204.390625 191.957031 204.160156 188.429688 Z M 213.417969 190.398438 C 212.476562 193.757812 215.800781 194.800781 217.625 194.964844 C 217.746094 197.460938 217.75 199.40625 217.871094 201.902344 C 214.777344 201.246094 210.730469 201.105469 210.566406 197.519531 C 210.226562 193.984375 210.109375 191.996094 213.417969 190.398438 Z M 264.707031 192.964844 C 267.34375 194.480469 267.742188 197.242188 266.582031 199.398438 C 264.242188 200.324219 261.308594 202.597656 262.171875 198.214844 C 260.355469 193.96875 265.765625 197.726562 264.707031 192.964844 Z M 273.988281 192.570312 C 274.65625 195.222656 274.832031 197.386719 271.445312 197.757812 C 268.472656 200.332031 268.316406 194.316406 271.28125 194.375 C 272.273438 193.761719 273.375 193.601562 273.988281 192.570312 Z M 225.21875 193.730469 C 225.25 197.128906 229.417969 196.691406 228.097656 200.253906 C 228.210938 202.558594 229.226562 205.234375 225.976562 203.773438 C 224.132812 202.9375 220.675781 204.078125 221.203125 201.140625 C 221.101562 198.945312 221.246094 196.734375 221.144531 194.535156 C 222.921875 194.652344 223.617188 194.621094 225.21875 193.730469 Z M 255.066406 196.164062 C 257.625 196.910156 260.226562 195.421875 259.484375 199.101562 C 261.222656 203.078125 255.5625 202.050781 253.148438 203.023438 C 251.496094 203.753906 252.03125 198.296875 252.945312 197.953125 C 254.246094 197.566406 254.882812 197.550781 255.066406 196.164062 Z M 241.933594 196.605469 C 244.742188 198.246094 246.507812 198.753906 249.726562 198.457031 C 246.945312 198.628906 252.011719 204.199219 247.804688 203.347656 C 245.359375 203.730469 244.507812 203.957031 242.042969 204.070312 C 242.042969 203.910156 242.0625 198.96875 241.933594 196.605469 Z M 237.722656 197.757812 C 239.183594 197.644531 239.597656 198.144531 239.03125 200.523438 C 238.851562 201.792969 238.746094 203.300781 238.992188 204.042969 C 238.992188 204.113281 234.699219 204.234375 231.296875 203.964844 C 231.792969 201.488281 229.53125 197.1875 232.90625 197.972656 C 234.710938 198.339844 236.265625 197.871094 237.722656 197.757812 Z M 237.722656 197.757812" fill-rule="evenodd"/></g><path fill="#FFF" d="M 248.269531 134.5 C 248.269531 144.015625 255.972656 151.730469 265.476562 151.730469 C 274.976562 151.730469 282.679688 144.015625 282.679688 134.5 C 282.679688 124.984375 274.976562 117.269531 265.476562 117.269531 C 255.972656 117.269531 248.269531 124.984375 248.269531 134.5"/><path fill="#211C1D" d="M 263.15625 134.5 C 263.15625 135.78125 264.195312 136.824219 265.476562 136.824219 C 266.753906 136.824219 267.792969 135.78125 267.792969 134.5 C 267.792969 133.21875 266.753906 132.175781 265.476562 132.175781 C 264.195312 132.175781 263.15625 133.21875 263.15625 134.5"/><path fill="#FFF" d="M 265.882812 133.429688 C 265.882812 133.796875 266.179688 134.09375 266.546875 134.09375 C 266.910156 134.09375 267.207031 133.796875 267.207031 133.429688 C 267.207031 133.0625 266.910156 132.765625 266.546875 132.765625 C 266.179688 132.765625 265.882812 133.0625 265.882812 133.429688"/><path fill="#211C1D" d="M 250.136719 134.5 C 250.136719 125.355469 257.003906 117.945312 265.476562 117.945312 C 273.945312 117.945312 280.8125 125.355469 280.8125 134.5 C 280.8125 143.644531 273.945312 151.054688 265.476562 151.054688 C 257.003906 151.054688 250.136719 143.644531 250.136719 134.5 Z M 248.269531 134.5 C 248.269531 144.015625 255.972656 151.730469 265.476562 151.730469 C 274.976562 151.730469 282.679688 144.015625 282.679688 134.5 C 282.679688 124.984375 274.976562 117.269531 265.476562 117.269531 C 255.972656 117.269531 248.269531 124.984375 248.269531 134.5"/><path fill="#211C1D" d="M 265.476562 117.269531 C 265.476562 117.269531 269.722656 117.046875 273.507812 117.046875 C 273.507812 117.046875 265.382812 115.640625 258.769531 118.628906 C 258.769531 118.628906 264.414062 117.320312 265.476562 117.269531"/><path fill="#211C1D" d="M 271.472656 150.300781 C 271.472656 150.300781 277.070312 148.664062 279.441406 145.902344 C 279.441406 145.902344 276.941406 149.941406 269.523438 151.25 C 269.523438 151.25 271.027344 150.632812 271.472656 150.300781"/><g clip-path="url(#c)"><path fill="#211C1D" d="M 243.097656 120.199219 C 243.097656 120.199219 262.375 109.765625 295.644531 109.765625 L 295.644531 102.136719 C 295.644531 102.136719 268.75 102.449219 243.097656 120.199219"/></g><path fill="#FFF" d="M 214.816406 117.269531 C 205.316406 117.269531 197.613281 124.984375 197.613281 134.5 C 197.613281 144.015625 205.316406 151.730469 214.816406 151.730469 C 224.316406 151.730469 232.019531 144.015625 232.019531 134.5 C 232.019531 124.984375 224.316406 117.269531 214.816406 117.269531"/><path fill="#211C1D" d="M 214.816406 132.175781 C 213.535156 132.175781 212.496094 133.21875 212.496094 134.5 C 212.496094 135.78125 213.535156 136.824219 214.816406 136.824219 C 216.097656 136.824219 217.136719 135.78125 217.136719 134.5 C 217.136719 133.21875 216.097656 132.175781 214.816406 132.175781"/><path fill="#FFF" d="M 213.746094 132.765625 C 213.378906 132.765625 213.082031 133.0625 213.082031 133.429688 C 213.082031 133.796875 213.378906 134.09375 213.746094 134.09375 C 214.113281 134.09375 214.410156 133.796875 214.410156 133.429688 C 214.410156 133.0625 214.113281 132.765625 213.746094 132.765625"/><path fill="#211C1D" d="M 214.816406 151.054688 C 206.34375 151.054688 199.476562 143.644531 199.476562 134.5 C 199.476562 125.355469 206.34375 117.945312 214.816406 117.945312 C 223.289062 117.945312 230.15625 125.355469 230.15625 134.5 C 230.15625 143.644531 223.289062 151.054688 214.816406 151.054688 Z M 214.816406 117.269531 C 205.316406 117.269531 197.613281 124.984375 197.613281 134.5 C 197.613281 144.015625 205.316406 151.730469 214.816406 151.730469 C 224.316406 151.730469 232.019531 144.015625 232.019531 134.5 C 232.019531 124.984375 224.316406 117.269531 214.816406 117.269531"/><path fill="#211C1D" d="M 214.816406 117.269531 C 214.816406 117.269531 210.566406 117.046875 206.785156 117.046875 C 206.785156 117.046875 214.90625 115.640625 221.519531 118.628906 C 221.519531 118.628906 215.875 117.320312 214.816406 117.269531"/><path fill="#211C1D" d="M 208.816406 150.300781 C 208.816406 150.300781 203.222656 148.664062 200.851562 145.902344 C 200.851562 145.902344 203.351562 149.941406 210.765625 151.25 C 210.765625 151.25 209.265625 150.632812 208.816406 150.300781"/><path fill="#211C1D" d="M 230.796875 152.949219 C 230.796875 152.949219 209.601562 149.417969 195.816406 152.949219 C 195.816406 152.949219 216.234375 150.457031 230.796875 152.949219"/><g clip-path="url(#d)"><path fill="#211C1D" d="M 282.964844 153.0625 C 282.964844 153.0625 261.769531 149.53125 247.984375 153.0625 C 247.984375 153.0625 268.402344 150.570312 282.964844 153.0625"/></g><g clip-path="url(#e)"><path fill="#211C1D" d="M 237.191406 120.199219 C 237.191406 120.199219 217.914062 109.765625 184.644531 109.765625 L 184.644531 102.136719 C 184.644531 102.136719 211.539062 102.449219 237.191406 120.199219"/></g><path fill="#211C1D" d="M 243.097656 120.199219 L 245.585938 110.285156 L 249.109375 111.636719 Z M 243.097656 120.199219"/><path fill="#211C1D" d="M 237.191406 120.199219 L 229.832031 111.636719 L 232.019531 109.144531 Z M 237.191406 120.199219"/></svg>