<?xml version="1.0" standalone="no"?>
<!DOCTYPE svg PUBLIC "-//W3C//DTD SVG 20010904//EN"
 "http://www.w3.org/TR/2001/REC-SVG-20010904/DTD/svg10.dtd">
<svg version="1.0" xmlns="http://www.w3.org/2000/svg"
 width="640.000000pt" height="480.000000pt" viewBox="0 0 640.000000 480.000000"
 preserveAspectRatio="xMidYMid meet">

<g transform="translate(0.000000,480.000000) scale(0.100000,-0.100000)"
fill="#000000" stroke="none">
<path d="M2305 3018 c-45 -25 -86 -74 -100 -122 -8 -27 -12 -52 -9 -55 4 -3 9
-1 11 6 10 29 67 95 96 113 72 45 104 26 307 -179 168 -169 239 -223 358 -268
92 -34 162 -93 163 -139 l1 -29 10 28 c26 71 -28 149 -129 186 -127 47 -210
108 -395 292 -142 141 -198 179 -260 179 -18 0 -42 -6 -53 -12z"/>
<path d="M3971 3010 c-27 -12 -101 -76 -195 -168 -174 -171 -253 -230 -369
-278 -108 -45 -147 -85 -147 -151 0 -27 5 -55 10 -63 7 -11 10 -6 10 22 0 49
47 96 126 128 156 61 191 86 390 282 155 151 198 188 226 193 56 11 104 -18
151 -89 l39 -61 -7 40 c-23 132 -126 196 -234 145z"/>
<path d="M2323 2826 c-97 -118 -129 -228 -99 -338 44 -160 187 -280 385 -324
154 -35 295 -1 387 94 78 79 74 94 -36 136 -194 73 -382 218 -544 419 -21 26
-44 47 -51 47 -8 0 -26 -15 -42 -34z m405 -438 c30 -30 -7 -95 -47 -80 -49 18
-38 92 14 92 12 0 26 -5 33 -12z"/>
<path d="M3951 2797 c-151 -190 -387 -363 -569 -418 -59 -17 -65 -46 -21 -96
82 -95 162 -128 304 -128 77 0 115 6 166 23 142 49 249 134 302 242 28 56 32
74 32 145 0 67 -4 89 -27 135 -34 69 -99 154 -120 158 -9 2 -36 -22 -67 -61z
m-270 -388 c18 -34 -3 -69 -41 -69 -42 0 -62 40 -35 70 24 26 61 26 76 -1z"/>
<path d="M3122 2607 c31 -30 67 -56 81 -59 37 -7 76 14 127 67 l45 47 -45 -22
c-25 -13 -71 -25 -105 -27 -51 -4 -68 -1 -110 21 l-50 26 57 -53z"/>
<path d="M3780 1989 c-164 -52 -428 -124 -495 -133 -115 -17 -621 -66 -739
-72 -75 -4 -136 -10 -136 -14 0 -16 152 -150 206 -182 328 -191 680 -241 904
-128 109 56 275 219 382 377 50 75 98 167 98 191 0 23 -63 12 -220 -39z m120
-38 c0 -5 -8 -19 -18 -31 -17 -21 -23 -22 -78 -15 l-59 8 65 23 c73 25 90 28
90 15z m-232 -73 c-3 -7 -20 -57 -37 -110 -18 -54 -35 -98 -37 -98 -11 0 -195
145 -188 147 42 14 242 71 253 72 7 0 11 -5 9 -11z m140 -34 c22 -4 21 -7 -22
-62 -52 -66 -141 -154 -134 -132 3 8 20 59 37 112 l32 97 32 -5 c18 -3 42 -7
55 -10z m-461 -56 c-29 -76 -101 -238 -106 -238 -4 0 -53 47 -111 105 l-105
105 -65 -71 -65 -72 -105 53 -105 52 -46 -25 -46 -26 -23 24 c-13 14 -20 25
-16 25 27 0 371 35 536 54 240 29 264 30 257 14z m175 -139 l78 -57 -32 -27
c-48 -40 -138 -82 -203 -94 -101 -19 -99 -25 -43 107 28 64 54 128 59 141 9
23 10 23 36 5 15 -9 62 -43 105 -75z m-382 -84 l105 -105 -37 0 c-107 0 -343
67 -481 137 -56 28 -66 37 -57 48 10 12 31 5 127 -43 l114 -57 56 63 c30 34
58 62 62 62 3 0 53 -47 111 -105z"/>
</g>
</svg>
